<?xml version="1.0" encoding="utf-8"?>
<!-- Generated by IcoMoon.io -->
<!DOCTYPE svg PUBLIC "-//W3C//DTD SVG 1.1//EN" "http://www.w3.org/Graphics/SVG/1.1/DTD/svg11.dtd">
<svg version="1.1" xmlns="http://www.w3.org/2000/svg" xmlns:xlink="http://www.w3.org/1999/xlink" width="43" height="64" viewBox="0 0 43 64">
<path d="M19.478 13.217v4.87h-4.174v-4.87h4.174zM23.652 18.087v-4.87h4.174v4.87h-4.174zM21.565 6.957c3.458 0 6.261 2.803 6.261 6.261h-4.174c0-1.153-0.934-2.087-2.087-2.087v-4.174zM21.565 11.13c-1.153 0-2.087 0.934-2.087 2.087h-4.174c0-3.458 2.803-6.261 6.261-6.261v4.174zM19.478 18.087c0 1.153 0.934 2.087 2.087 2.087v4.174c-3.458 0-6.261-2.803-6.261-6.261h4.174zM21.565 20.174c1.153 0 2.087-0.934 2.087-2.087h4.174c0 3.458-2.803 6.261-6.261 6.261v-4.174z"></path>
<path d="M14.261 2.435h14.609v-4.174h-14.609v4.174zM40.696 14.261v35.478h4.174v-35.478h-4.174zM28.87 61.565h-14.609v4.174h14.609v-4.174zM2.435 49.739v-35.478h-4.174v35.478h4.174zM14.261-1.739c-8.837 0-16 7.163-16 16h4.174c0-6.531 5.295-11.826 11.826-11.826v-4.174zM28.87 2.435c6.531 0 11.826 5.295 11.826 11.826h4.174c0-8.837-7.163-16-16-16v4.174zM40.696 49.739c0 6.531-5.295 11.826-11.826 11.826v4.174c8.837 0 16-7.163 16-16h-4.174zM14.261 61.565c-6.531 0-11.826-5.295-11.826-11.826h-4.174c0 8.837 7.163 16 16 16v-4.174z"></path>
</svg>
